<svg width="68" height="66" viewBox="0 0 68 66" fill="none" xmlns="http://www.w3.org/2000/svg">
<g clip-path="url(#clip0_110_221)">
<path d="M66.7887 33.0162C66.7887 51.0603 51.6631 66 33.3943 66C15.1584 66 0 51.0603 0 33.0162C0 15.0045 15.1257 0.0323486 33.3616 0.0323486C51.6303 0.0323486 66.7887 15.0045 66.7887 33.0162ZM15.9769 47.8589C15.9769 49.0878 16.5989 49.9609 17.974 49.9609H48.8145C50.1897 49.9609 50.8116 49.0878 50.8116 47.8589C50.8116 44.2373 45.2461 34.7623 33.3943 34.7623C21.5426 34.7623 15.9769 44.2373 15.9769 47.8589ZM24.7184 22.636C24.7184 28.004 28.6144 31.9814 33.3943 32.0138C38.1742 32.0461 42.0702 28.004 42.0702 22.636C42.0702 17.6561 38.1742 13.5169 33.3943 13.5169C28.6144 13.5169 24.7184 17.6561 24.7184 22.636Z" fill="white" fill-opacity="0.85"/>
</g>
<defs>
<clipPath id="clip0_110_221">
<rect width="68" height="66" fill="white"/>
</clipPath>
</defs>
</svg>
