<?xml version="1.0" encoding="UTF-8"?><svg id="Layer_2" xmlns="http://www.w3.org/2000/svg" xmlns:xlink="http://www.w3.org/1999/xlink" viewBox="0 0 95.94 35.64"><defs><style>.cls-1{fill:none;}.cls-2{fill:url(#linear-gradient);}.cls-3{clip-path:url(#clippath);}.cls-4{fill:#353d46;}</style><clipPath id="clippath"><path class="cls-1" d="M84.54,26.42h0l-3.52,.17c-.43,.02-.76,.37-.76,.79v7.85c0,.22,.18,.4,.4,.4h.79c.22,0,.4-.18,.4-.4v-7.1l1.93-.1v5.8c0,.22,.18,.4,.4,.4h.79c.22,0,.4-.18,.4-.4v-6.64c0-.08,0-.14-.02-.2-.1-.36-.41-.6-.77-.6-.01,0-.03,0-.04,0m-7.78,5.89c0-.43,.35-.77,.77-.77s.77,.35,.77,.77-.35,.77-.77,.77-.77-.35-.77-.77m.38-7.02c-.22,0-.4,.18-.4,.4v4.85l-.04,.02c-.68,.33-1.1,1-1.1,1.75,0,1.07,.87,1.94,1.94,1.94s1.94-.87,1.94-1.94c0-.75-.42-1.42-1.1-1.75l-.04-.02v-4.85c0-.22-.18-.4-.4-.4h-.79Zm14.08-2.6l-3.52,2.06c-.24,.14-.4,.4-.4,.68v6.39c0,.22,.18,.4,.4,.4h.78c.22,0,.4-.18,.4-.4v-5.93l1.93-1.13v4.2c0,.22,.18,.4,.4,.4h.79c.22,0,.4-.18,.4-.4v-5.56c0-.24-.09-.46-.25-.61-.15-.14-.35-.21-.54-.21-.14,0-.27,.04-.4,.11m-21.5-1.3c0-.43,.35-.77,.77-.77s.77,.35,.77,.77-.35,.77-.77,.77-.77-.35-.77-.77m-1.17,0c0,.75,.42,1.42,1.1,1.74l.04,.02v5.8c0,.22,.18,.4,.4,.4h.79c.22,0,.4-.18,.4-.4v-5.8l.04-.02c.68-.33,1.1-1,1.1-1.74,0-1.07-.87-1.94-1.94-1.94s-1.94,.87-1.94,1.94m12.44-8.86l-.04,.1c-.1,.21-.14,.48-.16,.68-.22-.19-.68-.49-1.4-.59l-.2-.03s-.06,.01-.08,.04c-.01,.03,0,.07,.03,.08l.16,.11c.4,.28,.64,.54,.76,.71-.48-.08-1.83-.17-2.77,.92l-.11,.13s-.02,.06,0,.08c.02,.03,.05,.04,.08,.03l.16-.05c1.23-.41,1.87-.3,2.14-.21-.5,.17-1.88,.81-2.27,2.72l-.05,.23s.01,.07,.04,.08c.03,.01,.06,0,.08-.03l.13-.19c.61-.88,1.22-1.3,1.63-1.49,.26-.12,.47-.17,.61-.19-.32,.36-1.07,1.39-.81,2.85l.04,.21s.03,.05,.07,.06c.04,0,.06-.02,.07-.05l.05-.2c.4-1.47,.98-2.03,1.48-2.34,.05,.79,.09,3.18-.16,5.18-.16-.11-.31-.21-.45-.32-1.21-.86-2.16-1.53-4.05-.99-.03,0-.05,.04-.05,.07,0,.03,.03,.06,.06,.06,1.86,.16,2.74,.85,3.67,1.58,.21,.16,.42,.33,.64,.49-.64,.42-1.32,.82-2.03,.94-.03,0-.06,.04-.07,.07,0,.03,.02,.07,.04,.09,1,.53,1.86,.06,2.79-.58,.65,.44,1.27,.81,1.92,.81,.28,0,.57-.07,.87-.23,.03-.01,.05-.06,.04-.09,0-.04-.03-.07-.07-.07-.7-.13-1.39-.52-2.02-.94,.22-.16,.44-.33,.64-.49,.93-.73,1.81-1.43,3.68-1.58,.03,0,.06-.03,.07-.06,0-.04-.02-.07-.05-.07-1.89-.54-2.84,.14-4.05,.99-.15,.1-.29,.21-.45,.32-.26-1.99-.21-4.39-.16-5.18,.49,.3,1.08,.87,1.48,2.34l.05,.2s.04,.05,.07,.05c.03,0,.06-.03,.06-.06l.04-.21c.26-1.46-.5-2.49-.81-2.85,.14,.02,.35,.07,.61,.19,.41,.19,1.03,.6,1.63,1.49l.13,.19s.05,.04,.09,.03,.05-.05,.04-.08l-.05-.23c-.39-1.9-1.78-2.55-2.27-2.72,.26-.09,.9-.19,2.14,.21l.16,.05s.06,0,.08-.03c.01-.03,.01-.06,0-.08l-.11-.13c-.94-1.1-2.29-1-2.77-.92,.12-.17,.36-.43,.76-.71l.16-.11s.04-.05,.03-.08c-.01-.03-.04-.05-.07-.04l-.2,.03c-.36,.05-.66,.15-.89,.26-.23,.11-.4,.23-.51,.33-.02-.2-.07-.47-.16-.68l-.04-.1s-.04-.04-.06-.04-.05,.02-.06,.04m-10.9-.53c-.22,0-.4,.18-.4,.4v2.85c0,.19,.07,.37,.19,.51l3.33,3.87v12.19c0,.22,.18,.4,.4,.4h.79c.22,0,.4-.18,.4-.4v-12.48c0-.19-.07-.37-.19-.52l-3.33-3.87v-2.55c0-.22-.18-.4-.4-.4h-.79Zm-3.52-8.15c-.22,0-.4,.18-.4,.4V22.53c0,.22,.18,.4,.4,.4h.79c.22,0,.4-.18,.4-.4V4.25c0-.22-.18-.4-.4-.4h-.79Zm28.18,0c-.22,0-.4,.18-.4,.4V22.53c0,.22,.18,.4,.4,.4h.79c.22,0,.4-.18,.4-.4V4.25c0-.22-.18-.4-.4-.4h-.79Zm-3.52-1.9c-.22,0-.4,.18-.4,.4V12.98c0,.22,.18,.4,.4,.4h.79c.22,0,.4-.18,.4-.4V2.36c0-.22-.18-.4-.4-.4h-.79Zm-17.61-1.12c-.22,0-.4,.18-.4,.4V7.34l-1.93,.94V2.36c0-.22-.18-.4-.4-.4h-.79c-.22,0-.4,.18-.4,.4v7.15c0,.22,.07,.42,.21,.57,.15,.16,.36,.25,.58,.25,.12,0,.24-.03,.34-.08l3.52-1.7c.27-.13,.45-.41,.45-.71V1.24c0-.22-.18-.4-.4-.4h-.79Zm13.71,1.94c0-.43,.34-.77,.77-.77s.77,.35,.77,.77-.34,.77-.77,.77-.77-.34-.77-.77m-1.17,0c0,.74,.43,1.42,1.1,1.74l.04,.02V14.13c0,.24,.1,.46,.29,.61l3.24,2.7v1.61c0,.22,.18,.4,.4,.4h.79c.22,0,.4-.18,.4-.4v-1.98c0-.24-.1-.46-.28-.61l-3.24-2.7V4.55l.04-.02c.67-.32,1.1-1.01,1.1-1.74,0-1.07-.87-1.94-1.94-1.94s-1.94,.87-1.94,1.94m-1.98-2.5c-.22,0-.4,.18-.4,.4V10.17c0,.22,.18,.4,.4,.4h.79c.22,0,.4-.18,.4-.4V.68c0-.22-.18-.4-.4-.4h-.79Zm-3.52-.28c-.22,0-.4,.18-.4,.4v7.8l-1.93-1.18V.68c0-.22-.18-.4-.4-.4h-.79c-.22,0-.4,.18-.4,.4V7.47c0,.27,.15,.54,.38,.68l3.52,2.14c.25,.15,.58,.15,.83,0,.23-.14,.38-.42,.38-.71V.4c0-.22-.18-.4-.4-.4h-.79Z"/></clipPath><linearGradient id="linear-gradient" x1="-107.08" y1="258.29" x2="-106.08" y2="258.29" gradientTransform="translate(3897.61 9261.87) scale(35.79 -35.79)" gradientUnits="userSpaceOnUse"><stop offset="0" stop-color="#7491f7"/><stop offset="0" stop-color="#7491f7"/><stop offset="1" stop-color="#2d3982"/><stop offset="1" stop-color="#2d3982"/></linearGradient></defs><g id="Layer_1-2"><g><g><path class="cls-4" d="M1.51,28.72c.21,.3,.38,.56,.51,.79h.01c-.02-.38-.03-.65-.03-.82v-1.31h.53v2.9h-.56l-.95-1.34c-.17-.23-.34-.5-.52-.81h-.01c.02,.36,.03,.63,.03,.83v1.32H0v-2.9H.56l.96,1.35Z"/><path class="cls-4" d="M4.36,29.38s-.1-.02-.17-.03c-.06,0-.13-.01-.19-.01-.13,0-.22,.02-.3,.07-.07,.05-.11,.13-.11,.23,0,.05,0,.09,.02,.12,.02,.03,.04,.06,.07,.09,.03,.02,.06,.04,.1,.05,.04,.01,.08,.02,.12,.02,.05,0,.1,0,.15-.02,.05-.01,.09-.03,.13-.05,.04-.02,.07-.05,.11-.07,.03-.03,.06-.05,.08-.08v-.32Zm.04,.67h0s-.06,.06-.1,.09c-.04,.03-.09,.06-.14,.09-.05,.03-.11,.05-.17,.07-.06,.02-.13,.03-.21,.03-.1,0-.19-.02-.28-.05-.09-.03-.16-.08-.22-.13-.06-.06-.11-.13-.15-.21-.03-.08-.05-.18-.05-.28,0-.11,.02-.21,.06-.3,.04-.09,.1-.17,.17-.23,.07-.06,.16-.11,.26-.14,.1-.03,.22-.05,.34-.05,.09,0,.17,0,.25,.02,.08,.01,.14,.03,.2,.04v-.08s0-.1-.02-.14c-.02-.05-.04-.09-.08-.12-.04-.03-.08-.06-.14-.08-.06-.02-.13-.03-.22-.03-.1,0-.21,.01-.31,.04-.1,.02-.22,.06-.34,.1v-.4c.11-.05,.22-.08,.34-.11,.12-.02,.24-.04,.37-.04,.15,0,.29,.02,.4,.06,.11,.04,.21,.09,.29,.15,.08,.07,.14,.14,.17,.23,.04,.09,.06,.19,.06,.29v.79c0,.14,0,.26,0,.36,0,.1,0,.19,0,.27h-.46l-.02-.22Z"/><path class="cls-4" d="M6.74,30.27c-.06,.02-.13,.03-.21,.04-.08,.01-.16,.02-.22,.02-.18,0-.32-.03-.43-.09-.11-.06-.19-.14-.24-.25-.03-.08-.05-.18-.05-.31v-1.09h-.39v-.42h.39v-.59h.51v.59h.61v.42h-.61v1.02c0,.08,.01,.14,.04,.18,.04,.07,.13,.1,.26,.1,.06,0,.12,0,.18-.01,.06,0,.11-.02,.17-.04v.42Z"/><path class="cls-4" d="M7.15,28.18h.51v2.1h-.51v-2.1Zm-.01-1.04h.54v.56h-.54v-.56Z"/><path class="cls-4" d="M9.71,29.23c0-.11-.01-.21-.04-.29-.03-.08-.06-.16-.11-.21-.05-.06-.1-.1-.17-.13-.07-.03-.14-.04-.21-.04s-.14,.01-.21,.04c-.07,.03-.12,.07-.17,.13-.05,.06-.08,.13-.11,.21-.03,.09-.04,.18-.04,.29s.01,.21,.04,.3c.03,.08,.06,.16,.11,.21,.05,.06,.1,.1,.17,.13,.07,.03,.14,.04,.21,.04s.15-.01,.21-.04c.06-.03,.12-.07,.17-.13,.05-.06,.08-.13,.11-.21,.03-.09,.04-.18,.04-.3m.53,0c0,.17-.02,.32-.07,.45-.05,.14-.12,.25-.21,.35-.09,.1-.2,.17-.33,.23-.13,.05-.28,.08-.44,.08s-.31-.03-.44-.08c-.13-.05-.24-.13-.33-.23-.09-.1-.16-.21-.21-.35-.05-.14-.07-.29-.07-.45s.03-.31,.08-.45c.05-.14,.12-.25,.21-.35,.09-.1,.2-.17,.33-.23,.13-.05,.28-.08,.44-.08s.31,.03,.44,.08c.13,.05,.24,.13,.33,.23,.09,.1,.16,.21,.21,.35,.05,.14,.07,.29,.07,.45"/><path class="cls-4" d="M11.17,28.47h0s.07-.09,.11-.13c.05-.04,.1-.08,.16-.11,.06-.03,.12-.06,.2-.08,.07-.02,.15-.03,.23-.03,.08,0,.15,0,.22,.03,.07,.02,.14,.04,.2,.08,.06,.04,.11,.08,.16,.14s.08,.13,.11,.21c.01,.04,.02,.09,.03,.15,0,.05,0,.11,0,.18v1.36h-.51v-1.28c0-.06,0-.1,0-.15,0-.04-.01-.08-.02-.11-.03-.07-.07-.11-.12-.14-.05-.03-.12-.04-.19-.04-.1,0-.19,.02-.29,.07-.09,.05-.17,.11-.24,.21v1.45h-.51v-2.1h.43l.05,.29Z"/><path class="cls-4" d="M14.36,29.38s-.1-.02-.17-.03c-.06,0-.13-.01-.19-.01-.13,0-.22,.02-.3,.07-.07,.05-.11,.13-.11,.23,0,.05,0,.09,.02,.12,.02,.03,.04,.06,.07,.09,.03,.02,.06,.04,.1,.05,.04,.01,.08,.02,.12,.02,.05,0,.1,0,.15-.02,.05-.01,.09-.03,.13-.05,.04-.02,.07-.05,.11-.07,.03-.03,.06-.05,.08-.08v-.32Zm.04,.67h0s-.06,.06-.1,.09c-.04,.03-.09,.06-.14,.09-.05,.03-.11,.05-.17,.07-.06,.02-.13,.03-.21,.03-.1,0-.19-.02-.28-.05-.09-.03-.16-.08-.22-.13-.06-.06-.11-.13-.15-.21-.03-.08-.05-.18-.05-.28,0-.11,.02-.21,.06-.3,.04-.09,.1-.17,.17-.23,.07-.06,.16-.11,.26-.14,.1-.03,.22-.05,.34-.05,.09,0,.18,0,.25,.02,.08,.01,.14,.03,.2,.04v-.08s0-.1-.02-.14c-.02-.05-.04-.09-.08-.12-.04-.03-.08-.06-.14-.08-.06-.02-.13-.03-.22-.03-.1,0-.21,.01-.31,.04-.1,.02-.22,.06-.34,.1v-.4c.11-.05,.22-.08,.34-.11,.12-.02,.24-.04,.37-.04,.15,0,.29,.02,.4,.06,.11,.04,.21,.09,.29,.15s.14,.14,.17,.23c.04,.09,.06,.19,.06,.29v.79c0,.14,0,.26,0,.36,0,.1,0,.19,0,.27h-.46l-.02-.22Z"/><rect class="cls-4" x="15.47" y="27.14" width=".51" height="3.14"/><path class="cls-4" d="M18.97,27.77c-.15,0-.28,.02-.4,.07-.12,.05-.23,.12-.32,.21-.09,.09-.15,.2-.21,.34-.05,.13-.07,.29-.07,.46s.02,.32,.07,.45c.04,.13,.11,.24,.19,.32,.08,.09,.18,.15,.31,.2,.12,.04,.26,.07,.41,.07,.11,0,.22,0,.34-.03,.11-.02,.22-.04,.32-.08v.46c-.1,.03-.21,.05-.33,.07-.12,.02-.24,.03-.36,.03-.25,0-.46-.04-.65-.11-.19-.07-.34-.17-.47-.3-.13-.13-.22-.28-.28-.46-.06-.18-.09-.38-.09-.59s.03-.43,.1-.62c.07-.19,.16-.35,.29-.49,.13-.14,.28-.25,.47-.33,.19-.08,.4-.12,.64-.12,.12,0,.24,0,.35,.02,.11,.02,.21,.04,.3,.07v.45c-.12-.03-.22-.06-.32-.07-.1-.01-.2-.02-.29-.02"/><path class="cls-4" d="M19.66,28.18h.55l.31,.76c.12,.29,.2,.5,.25,.64h0c.04-.11,.11-.31,.23-.6l.33-.8h.56l-1.35,3.11h-.51l.48-1.13-.86-1.98Z"/><path class="cls-4" d="M23.69,29.22c0-.13-.02-.24-.05-.34-.03-.1-.07-.17-.12-.22-.05-.05-.1-.08-.16-.1-.06-.02-.11-.03-.17-.03-.07,0-.15,.01-.23,.05-.08,.03-.15,.07-.21,.12v1.01s.04,.05,.07,.07c.03,.03,.06,.05,.1,.07,.04,.02,.08,.04,.12,.05,.04,.01,.09,.02,.14,.02,.08,0,.16-.02,.22-.05,.06-.03,.12-.08,.16-.14,.04-.06,.08-.14,.1-.22,.02-.09,.03-.18,.03-.29m.53-.03c0,.19-.03,.36-.08,.5-.06,.14-.13,.26-.22,.36-.09,.1-.19,.16-.3,.21-.11,.04-.22,.07-.34,.07-.08,0-.15,0-.21-.03-.06-.02-.12-.04-.17-.07-.05-.03-.09-.06-.12-.09-.03-.03-.06-.06-.08-.09h0l-.05,.22h-.42c0-.06,0-.14,0-.23,0-.09,0-.18,0-.26v-2.65h.51v.88c0,.06,0,.12,0,.17,0,.05,0,.09,0,.12h0s.07-.04,.11-.07c.04-.02,.08-.04,.13-.06,.05-.02,.1-.03,.15-.04,.05,0,.11-.02,.17-.02,.12,0,.23,.02,.34,.06,.11,.04,.21,.11,.29,.2,.09,.09,.15,.2,.21,.34,.05,.14,.08,.29,.08,.47"/><path class="cls-4" d="M25.55,28.52c-.07,0-.12,.01-.17,.04-.05,.02-.1,.06-.13,.1-.04,.04-.07,.09-.09,.14-.02,.05-.04,.11-.04,.18h.83c0-.06,0-.12-.03-.18-.02-.06-.04-.1-.07-.14-.03-.04-.07-.07-.12-.1-.05-.02-.11-.04-.17-.04m.21,1.39c.1,0,.2,0,.31-.03,.11-.02,.22-.05,.33-.09v.41c-.07,.03-.17,.06-.31,.08-.14,.03-.28,.04-.43,.04s-.29-.02-.42-.06c-.13-.04-.25-.1-.35-.18-.1-.08-.18-.2-.24-.33-.06-.14-.09-.3-.09-.49s.03-.36,.08-.5c.05-.14,.13-.26,.22-.36s.2-.16,.32-.21c.12-.05,.24-.07,.37-.07s.26,.02,.37,.06,.21,.1,.29,.19c.08,.09,.14,.2,.19,.34,.04,.14,.07,.3,.07,.48,0,.07,0,.13,0,.18h-1.38c0,.1,.03,.18,.07,.25,.04,.07,.08,.12,.14,.17,.06,.04,.13,.07,.21,.09,.08,.02,.16,.03,.25,.03"/><path class="cls-4" d="M28.2,28.58h-.04c-.16,0-.3,.02-.41,.07-.12,.05-.21,.12-.28,.21v1.41h-.51v-2.1h.43l.05,.29h0c.06-.11,.14-.19,.25-.25,.11-.06,.23-.09,.38-.09,.05,0,.1,0,.13,0v.45Z"/><path class="cls-4" d="M29.44,29.67s-.01-.08-.04-.11c-.03-.03-.06-.05-.1-.07-.04-.02-.09-.04-.15-.05-.05-.01-.11-.03-.17-.04-.07-.02-.15-.04-.22-.07-.07-.03-.13-.06-.18-.1-.05-.04-.1-.1-.13-.16-.03-.07-.05-.15-.05-.24,0-.12,.02-.22,.06-.3,.04-.09,.1-.16,.17-.21,.07-.06,.16-.1,.25-.13,.1-.03,.19-.04,.3-.04,.13,0,.25,.01,.36,.03,.11,.02,.21,.05,.31,.08v.42s-.1-.03-.15-.04c-.05-.01-.11-.03-.16-.04-.06-.01-.11-.02-.16-.03-.05,0-.1,0-.15,0-.06,0-.11,0-.15,.02-.04,.01-.08,.03-.1,.05-.03,.02-.05,.04-.06,.07-.01,.03-.02,.05-.02,.08,0,.05,.01,.09,.04,.12,.03,.03,.06,.05,.1,.07,.04,.02,.09,.04,.14,.05,.05,.01,.1,.02,.14,.04,.07,.02,.14,.04,.22,.06,.07,.02,.14,.06,.2,.1,.06,.04,.1,.1,.14,.17,.04,.07,.05,.16,.05,.27,0,.12-.02,.22-.07,.31s-.11,.16-.19,.22c-.08,.06-.18,.1-.29,.13-.11,.03-.24,.04-.37,.04s-.25-.01-.36-.03c-.11-.02-.19-.05-.26-.08v-.41c.11,.04,.22,.07,.31,.09,.1,.02,.18,.02,.27,.02,.06,0,.12,0,.18-.01,.05,0,.1-.02,.14-.04,.04-.02,.07-.05,.09-.08,.02-.03,.04-.07,.04-.11"/><path class="cls-4" d="M31.27,28.52c-.07,0-.12,.01-.17,.04-.05,.02-.1,.06-.13,.1-.04,.04-.07,.09-.09,.14-.02,.05-.04,.11-.04,.18h.83c0-.06,0-.12-.03-.18-.02-.06-.04-.1-.07-.14-.03-.04-.07-.07-.12-.1-.05-.02-.11-.04-.17-.04m.21,1.39c.1,0,.2,0,.31-.03,.11-.02,.22-.05,.33-.09v.41c-.07,.03-.17,.06-.31,.08-.14,.03-.28,.04-.43,.04s-.29-.02-.42-.06c-.13-.04-.25-.1-.35-.18-.1-.08-.18-.2-.24-.33-.06-.14-.09-.3-.09-.49s.03-.36,.08-.5c.05-.14,.13-.26,.22-.36s.2-.16,.32-.21c.12-.05,.24-.07,.37-.07s.26,.02,.37,.06c.11,.04,.21,.1,.29,.19,.08,.09,.14,.2,.19,.34,.04,.14,.07,.3,.07,.48,0,.07,0,.13,0,.18h-1.38c0,.1,.03,.18,.07,.25,.04,.07,.08,.12,.14,.17,.06,.04,.13,.07,.21,.09,.08,.02,.16,.03,.25,.03"/><path class="cls-4" d="M34.18,30.23c-.07,.03-.15,.05-.24,.07-.09,.02-.19,.03-.3,.03-.15,0-.29-.02-.43-.07-.13-.04-.24-.11-.34-.2-.1-.09-.17-.2-.23-.34-.06-.14-.08-.29-.08-.47,0-.2,.03-.38,.1-.52,.07-.15,.15-.26,.25-.35,.1-.09,.22-.16,.35-.2,.13-.04,.26-.06,.38-.06,.09,0,.18,0,.27,.02,.09,.02,.17,.04,.24,.07v.42c-.06-.03-.13-.05-.2-.07-.07-.02-.15-.03-.23-.03s-.16,.01-.24,.04c-.08,.02-.14,.06-.2,.12-.06,.05-.1,.13-.14,.22-.03,.09-.05,.2-.05,.33,0,.09,.01,.18,.04,.26,.03,.08,.06,.15,.11,.21,.05,.06,.11,.1,.19,.14,.08,.04,.17,.05,.27,.05,.09,0,.18,0,.26-.03,.08-.02,.15-.04,.22-.07v.42Z"/><path class="cls-4" d="M35.56,30.33c-.21,0-.39-.04-.52-.11-.14-.07-.24-.17-.32-.29-.04-.07-.07-.14-.08-.22-.02-.08-.03-.16-.03-.26v-1.28h.51v1.23c0,.07,0,.13,.01,.18,0,.05,.03,.1,.05,.13,.03,.06,.08,.11,.15,.14,.06,.03,.14,.05,.23,.05,.09,0,.17-.02,.24-.05,.07-.04,.12-.09,.15-.16,.03-.07,.05-.16,.05-.28v-1.24h.51v1.28c0,.17-.03,.31-.09,.43-.03,.07-.08,.13-.13,.18-.05,.05-.11,.1-.19,.14-.07,.04-.15,.07-.24,.09-.09,.02-.19,.03-.3,.03"/><path class="cls-4" d="M38.3,28.58h-.04c-.16,0-.3,.02-.41,.07-.12,.05-.21,.12-.28,.21v1.41h-.51v-2.1h.42l.05,.29h0c.06-.11,.15-.19,.25-.25,.11-.06,.23-.09,.38-.09,.05,0,.1,0,.14,0v.45Z"/><path class="cls-4" d="M38.61,28.18h.51v2.1h-.51v-2.1Zm-.01-1.04h.54v.56h-.54v-.56Z"/><path class="cls-4" d="M40.99,30.27c-.06,.02-.13,.03-.21,.04-.08,.01-.16,.02-.22,.02-.18,0-.32-.03-.43-.09-.11-.06-.19-.14-.24-.25-.03-.08-.05-.18-.05-.31v-1.09h-.39v-.42h.39v-.59h.51v.59h.61v.42h-.61v1.02c0,.08,.01,.14,.04,.18,.04,.07,.13,.1,.26,.1,.06,0,.12,0,.18-.01,.06,0,.11-.02,.17-.04v.42Z"/><path class="cls-4" d="M41.13,28.18h.55l.32,.76c.12,.29,.2,.5,.25,.64h0c.04-.11,.11-.31,.23-.6l.33-.8h.56l-1.35,3.11h-.51l.48-1.13-.86-1.98Z"/><path class="cls-4" d="M45.76,28.07c-.1,.3-.19,.56-.27,.76l-.1,.26h.75l-.1-.26c-.08-.21-.17-.46-.27-.76h0Zm.55,1.46h-1.09l-.28,.74h-.57l1.15-2.9h.49l1.15,2.9h-.56l-.28-.74Z"/><path class="cls-4" d="M49.02,30.23c-.07,.03-.15,.05-.24,.07-.09,.02-.19,.03-.3,.03-.15,0-.29-.02-.43-.07-.13-.04-.25-.11-.34-.2-.1-.09-.18-.2-.23-.34-.06-.14-.09-.29-.09-.47,0-.2,.03-.38,.1-.52,.07-.15,.15-.26,.25-.35,.1-.09,.22-.16,.35-.2,.13-.04,.26-.06,.38-.06,.09,0,.18,0,.27,.02,.09,.02,.17,.04,.24,.07v.42c-.06-.03-.13-.05-.2-.07-.07-.02-.15-.03-.23-.03s-.16,.01-.24,.04c-.08,.02-.14,.06-.2,.12-.06,.05-.1,.13-.14,.22-.03,.09-.05,.2-.05,.33,0,.09,.01,.18,.04,.26,.03,.08,.06,.15,.11,.21,.05,.06,.11,.1,.19,.14,.08,.04,.17,.05,.27,.05,.09,0,.18,0,.26-.03,.08-.02,.15-.04,.22-.07v.42Z"/><path class="cls-4" d="M50.66,29.38s-.1-.02-.17-.03c-.06,0-.13-.01-.19-.01-.13,0-.22,.02-.3,.07-.07,.05-.11,.13-.11,.23,0,.05,0,.09,.02,.12,.02,.03,.04,.06,.07,.09,.03,.02,.06,.04,.1,.05,.04,.01,.08,.02,.12,.02,.05,0,.1,0,.15-.02,.05-.01,.09-.03,.13-.05,.04-.02,.07-.05,.1-.07,.03-.03,.06-.05,.08-.08v-.32Zm.04,.67h0s-.06,.06-.1,.09c-.04,.03-.09,.06-.14,.09-.05,.03-.11,.05-.17,.07-.06,.02-.13,.03-.21,.03-.1,0-.19-.02-.28-.05-.09-.03-.16-.08-.22-.13-.06-.06-.11-.13-.15-.21-.04-.08-.05-.18-.05-.28,0-.11,.02-.21,.06-.3,.04-.09,.1-.17,.17-.23,.07-.06,.16-.11,.26-.14,.1-.03,.22-.05,.34-.05,.09,0,.18,0,.25,.02,.08,.01,.14,.03,.2,.04v-.08s0-.1-.02-.14c-.02-.05-.04-.09-.08-.12-.04-.03-.08-.06-.14-.08-.06-.02-.13-.03-.22-.03-.1,0-.21,.01-.31,.04s-.22,.06-.34,.1v-.4c.11-.05,.22-.08,.34-.11,.12-.02,.24-.04,.37-.04,.15,0,.29,.02,.4,.06,.11,.04,.21,.09,.29,.15s.14,.14,.17,.23c.04,.09,.06,.19,.06,.29v.79c0,.14,0,.26,0,.36,0,.1,0,.19,0,.27h-.46l-.02-.22Z"/><path class="cls-4" d="M52.66,29.92c.05,0,.1,0,.14-.02,.04-.01,.09-.03,.13-.05s.08-.04,.11-.07c.03-.03,.06-.05,.08-.08v-1c-.06-.05-.13-.09-.2-.12-.07-.03-.15-.05-.24-.05-.05,0-.11,.01-.17,.03-.06,.02-.11,.06-.16,.11-.05,.05-.09,.12-.12,.22-.03,.09-.05,.21-.05,.35,0,.21,.04,.38,.12,.49,.08,.12,.2,.18,.36,.18m-1.01-.65c0-.18,.02-.35,.08-.49,.05-.14,.12-.26,.21-.36,.09-.1,.19-.17,.3-.22,.11-.05,.23-.07,.35-.07,.06,0,.11,0,.16,.01,.05,0,.1,.02,.14,.04,.04,.02,.09,.04,.13,.06,.04,.02,.07,.04,.11,.07h0s0-.07,0-.12c0-.05,0-.11,0-.17v-.87h.51v2.52c0,.14,0,.26,0,.36,0,.1,0,.19,0,.27h-.47l-.02-.22h0s-.07,.07-.11,.11c-.04,.03-.09,.06-.14,.09-.05,.03-.11,.05-.17,.06-.06,.02-.13,.02-.2,.02-.12,0-.22-.02-.33-.06-.1-.04-.2-.1-.28-.19-.08-.08-.15-.2-.2-.33-.05-.14-.07-.3-.07-.48"/><path class="cls-4" d="M55.1,28.52c-.07,0-.12,.01-.17,.04-.05,.02-.1,.06-.13,.1-.04,.04-.07,.09-.09,.14-.02,.05-.04,.11-.04,.18h.83c0-.06,0-.12-.03-.18-.02-.06-.04-.1-.07-.14-.03-.04-.07-.07-.12-.1-.05-.02-.11-.04-.17-.04m.21,1.39c.1,0,.2,0,.31-.03,.11-.02,.22-.05,.33-.09v.41c-.07,.03-.17,.06-.31,.08-.14,.03-.28,.04-.43,.04s-.29-.02-.43-.06c-.13-.04-.25-.1-.35-.18-.1-.08-.18-.2-.24-.33-.06-.14-.09-.3-.09-.49s.03-.36,.08-.5c.05-.14,.13-.26,.22-.36,.09-.09,.2-.16,.32-.21,.12-.05,.24-.07,.37-.07s.26,.02,.37,.06c.11,.04,.21,.1,.29,.19,.08,.09,.14,.2,.19,.34,.04,.14,.07,.3,.07,.48,0,.07,0,.13,0,.18h-1.38c0,.1,.03,.18,.07,.25,.04,.07,.08,.12,.14,.17,.06,.04,.13,.07,.21,.09,.08,.02,.16,.03,.25,.03"/><path class="cls-4" d="M59.21,29s0-.09,0-.13c0-.04,0-.07-.01-.1-.02-.06-.05-.11-.09-.15-.04-.04-.11-.06-.2-.06-.04,0-.09,0-.14,.02-.05,.01-.09,.03-.14,.05-.05,.02-.09,.05-.13,.09-.04,.03-.08,.07-.12,.11v1.45h-.51v-1.28s0-.09,0-.13c0-.04,0-.07-.01-.1-.02-.06-.05-.11-.09-.15-.04-.04-.11-.06-.2-.06-.04,0-.09,0-.14,.02-.05,.01-.1,.03-.14,.05-.05,.02-.09,.05-.13,.09-.04,.03-.08,.07-.12,.11v1.45h-.51v-2.1h.42l.05,.29h0s.07-.09,.12-.13c.04-.04,.1-.08,.16-.11,.06-.03,.12-.06,.19-.08,.07-.02,.15-.03,.22-.03,.14,0,.26,.03,.37,.09,.11,.06,.2,.16,.25,.29h0c.04-.06,.09-.11,.14-.15,.05-.05,.1-.09,.17-.12,.06-.03,.13-.06,.2-.08,.07-.02,.15-.03,.22-.03,.15,0,.28,.03,.38,.1,.1,.06,.18,.15,.24,.25,.01,.03,.03,.06,.04,.09,0,.03,.02,.07,.02,.11,0,.04,.01,.09,.01,.13,0,.05,0,.11,0,.17v1.3h-.51v-1.28Z"/><path class="cls-4" d="M60.03,28.18h.55l.31,.76c.12,.29,.2,.5,.25,.64h0c.04-.11,.11-.31,.23-.6l.32-.8h.56l-1.35,3.11h-.51l.48-1.13-.86-1.98Z"/><rect class="cls-4" x="9.2" y="15.43" width=".95" height=".83"/><rect class="cls-4" x="10.52" y="15.43" width=".95" height=".83"/><rect class="cls-4" x="12.64" y="10.2" width=".95" height=".83"/><path class="cls-4" d="M1.76,14.06c-.27,0-.46-.08-.59-.22-.14-.15-.21-.36-.21-.62,0-.6,.26-.9,.8-.9,.12,0,.26,.01,.41,.05v1.23c0,.16,.01,.3,.06,.43-.11,.02-.3,.05-.47,.05m14-1c.33-.23,.66-.41,.98-.54,.32-.13,.67-.2,1.02-.2,.3,0,.54,.08,.72,.24,.18,.16,.27,.38,.28,.65,0,.26-.04,.55-.13,.85h-2.87v-1Zm3.56,1.79c.26-.69,.39-1.24,.39-1.65,0-.32-.07-.61-.21-.86-.14-.26-.35-.46-.62-.6-.27-.15-.59-.22-.96-.22-.69,0-1.42,.25-2.17,.75v-2.46h-.92v4.25h-.66c-.29,0-.51-.08-.64-.24,.03-.12,.04-.24,.04-.37v-1.86h-.92v1.72c0,.23-.06,.41-.19,.55-.13,.14-.28,.21-.45,.21h-.13c-.25,0-.44-.02-.57-.05-.12-.04-.23-.11-.33-.22,.02-.12,.03-.23,.03-.34v-1.93h-.92v1.78c0,.23-.06,.41-.19,.55s-.27,.21-.45,.21H3.6c-.17,0-.29-.05-.38-.14-.08-.1-.13-.26-.13-.49v-1.78c-.56-.09-1-.13-1.3-.13-.36,0-.67,.07-.94,.22-.27,.14-.48,.34-.63,.6-.15,.26-.22,.55-.22,.86s.07,.62,.21,.87c.14,.25,.33,.44,.58,.58,.25,.14,.45,.2,.82,.2,.49,0,.87-.15,.99-.21,.19,.14,.42,.21,.72,.21h6.41c.21,0,.4-.04,.57-.13,.17-.09,.32-.21,.43-.37,.15,.18,.31,.31,.47,.39,.17,.07,.39,.11,.67,.11h.41c.4,0,.71-.14,.95-.42,.14,.14,.29,.24,.46,.32,.17,.07,.33,.1,.47,.1h5.14Z"/><rect class="cls-4" x="26.53" y="9.81" width=".92" height="5.04"/><rect class="cls-4" x="38.46" y="15.43" width=".95" height=".83"/><rect class="cls-4" x="37.15" y="15.43" width=".95" height=".83"/><path class="cls-4" d="M41.14,14.06v-1.71c.15-.03,.29-.05,.42-.05,.54,0,.8,.3,.8,.9,0,.26-.07,.47-.21,.62-.14,.15-.34,.23-.6,.23h-.42Zm-9.73,0c-.27,0-.46-.08-.59-.22-.14-.15-.21-.36-.21-.62,0-.6,.26-.9,.8-.9,.12,0,.26,.01,.41,.04v1.22c0,.16,.01,.3,.06,.43-.11,.02-.3,.05-.47,.05m11.43,.36c.14,.15,.29,.25,.46,.33,.17,.07,.33,.11,.48,.11h2.03v-3.26h-.91v2.48h-1.12c-.26,0-.46-.06-.59-.19,.08-.2,.12-.42,.12-.67,0-.32-.07-.6-.22-.86-.15-.26-.36-.46-.63-.6-.27-.15-.58-.22-.94-.22-.3,0-.74,.04-1.31,.13v2.41h-.4c-.25,0-.44-.02-.57-.06-.12-.04-.23-.11-.33-.21,.02-.12,.03-.23,.03-.34v-1.93h-.92v1.78c0,.23-.06,.41-.19,.55-.13,.14-.28,.21-.45,.21h-4.01s0,0,0,0h-.13c-.17,0-.29-.05-.38-.14-.08-.1-.13-.26-.13-.49v-1.78c-.56-.09-1-.13-1.3-.13-.36,0-.67,.07-.94,.22-.27,.14-.48,.35-.63,.6-.15,.26-.22,.55-.22,.86s.07,.62,.21,.87c.14,.25,.33,.44,.58,.58,.25,.14,.45,.2,.82,.2,.49,0,.87-.15,.99-.21,.19,.14,.43,.21,.72,.21h.4s0,0,0,0h4.29c.21,0,.4-.04,.58-.13,.17-.09,.32-.21,.43-.37,.15,.18,.31,.31,.47,.38,.17,.07,.39,.11,.66,.12h1.9c.45,0,.82-.15,1.13-.43"/><rect class="cls-4" x="45.04" y="15.43" width=".95" height=".83"/><rect class="cls-4" x="43.72" y="15.43" width=".95" height=".83"/><path class="cls-4" d="M47.48,14.85c.41,0,.8-.02,1.17-.08,.37-.05,.67-.13,.88-.24l.16-.38-1.01-2.64h-.99l.93,2.43c-.3,.07-.72,.11-1.26,.11h-1.11l.36,.79h.87Z"/><path class="cls-4" d="M54.44,11.85h-1.2l2.03-2.04h-1.13l-1.85,2.04,.36,.79h1.63c.33,0,.58,.06,.75,.19,.17,.12,.26,.33,.26,.62,0,.17-.04,.37-.13,.61h-3.28c-.17,0-.29-.05-.38-.14-.09-.1-.13-.26-.13-.48v-3.63h-.92v3.77c0,.39,.1,.69,.3,.93,.2,.23,.48,.35,.85,.35h4.21c.09-.19,.18-.43,.26-.71,.08-.28,.12-.53,.12-.76,0-.5-.15-.88-.45-1.14-.3-.26-.74-.4-1.32-.4"/><rect class="cls-4" x="61.38" y="9.81" width=".92" height="5.04"/><rect class="cls-4" x="1.21" y="23.53" width=".95" height=".83"/><rect class="cls-4" x="2.53" y="23.53" width=".95" height=".83"/><path class="cls-4" d="M10.71,22.16H6.6c-.17,0-.29-.05-.38-.14-.09-.1-.13-.26-.13-.48v-2.64h-1.42c-.56,0-.97,.15-1.22,.44-.26,.29-.39,.66-.39,1.1v1.73H1.89c-.64,0-.97-.29-.97-.88v-1.59H0v1.74c0,.44,.13,.8,.39,1.09,.26,.29,.67,.43,1.22,.43H3.98v-2.38c0-.59,.32-.89,.97-.89h.22v1.99c0,.39,.1,.69,.3,.92,.2,.23,.48,.35,.86,.35h5.31v-3.26h-.92v2.47Z"/><rect class="cls-4" x="10.69" y="18.3" width=".95" height=".83"/><rect class="cls-4" x="12.62" y="17.91" width=".92" height="5.04"/><rect class="cls-4" x="23" y="23.53" width=".95" height=".83"/><rect class="cls-4" x="26.23" y="23.53" width=".95" height=".83"/><rect class="cls-4" x="24.91" y="23.53" width=".95" height=".83"/><path class="cls-4" d="M35.75,22.16h-.66c-.26,0-.45-.02-.57-.06-.12-.04-.23-.11-.33-.22,.03-.14,.04-.25,.04-.34v-2.14h-.92v2c0,.25-.06,.44-.17,.57-.11,.12-.26,.19-.43,.19s-.34-.05-.49-.15c-.15-.1-.22-.25-.22-.45v-1.87h-.92v1.72c0,.23-.06,.41-.19,.55-.12,.14-.28,.21-.45,.21h-.41v-2.47h-.92v2.47h-1.51c-.25,0-.44-.02-.57-.06-.12-.04-.23-.11-.33-.21,.02-.12,.03-.23,.03-.34v-1.93h-.92v1.78c0,.23-.06,.41-.19,.55-.13,.14-.28,.21-.45,.21h-.59c-.29,0-.51-.08-.64-.24,.03-.12,.04-.24,.04-.37v-1.86h-.92v1.72c0,.23-.06,.41-.19,.55-.13,.14-.28,.21-.45,.21h-6.12c-.3,0-.52-.09-.67-.28v-2.19h-.92v3.09c0,.22-.03,.38-.09,.5-.06,.12-.15,.21-.28,.26-.12,.05-.29,.1-.51,.12l.37,.82c.42-.05,.77-.21,1.03-.48,.26-.27,.4-.69,.4-1.26h0c.23,.13,.45,.2,.67,.2h6.4c.4,0,.71-.14,.95-.42,.14,.14,.29,.25,.46,.32,.17,.07,.33,.11,.47,.11h.87c.21,0,.4-.04,.58-.13,.17-.09,.32-.21,.43-.37,.15,.18,.31,.31,.47,.38,.17,.07,.39,.11,.66,.12h3.12c.4,0,.72-.15,.96-.44,.12,.14,.27,.25,.45,.33,.18,.07,.42,.11,.71,.11,.23,0,.44-.05,.63-.14,.19-.09,.35-.22,.47-.38,.15,.19,.31,.33,.48,.4,.17,.07,.39,.11,.67,.12h1.57v-5.04h-.91v4.25Z"/><rect class="cls-4" x="37.79" y="17.91" width=".92" height="5.04"/><rect class="cls-4" x="42.4" y="18.86" width=".95" height=".83"/><path class="cls-4" d="M54.39,22.16h-1.09v-1.71c.14-.03,.28-.04,.42-.04,.54,0,.8,.3,.8,.9,0,.26-.04,.55-.13,.85m.23-2.32c-.27-.14-.58-.22-.94-.22-.3,0-.74,.04-1.31,.13v2.41h-7.65v-2.48h-.92v3.65h-.77c-.65,0-.97-.3-.97-.89v-1.14h-.92v1.28c0,.44,.13,.8,.39,1.09,.26,.29,.67,.43,1.22,.43h1.97v-1.17h10.35c.26-.69,.4-1.24,.4-1.65,0-.32-.07-.6-.22-.86-.15-.26-.36-.46-.63-.6"/><rect class="cls-4" x="31.64" y="10.2" width=".95" height=".83"/><rect class="cls-4" x="30.33" y="10.2" width=".95" height=".83"/><rect class="cls-4" x=".67" y="10.2" width=".95" height=".83"/><rect class="cls-4" x="1.99" y="10.2" width=".95" height=".83"/><path class="cls-4" d="M58.29,10.39h-.54s-.05-.06-.05-.11,.02-.07,.04-.08c.03-.02,.06-.03,.1-.03,.06,0,.15,.02,.27,.05h.05s.12-.4,.12-.4l-.05-.02c-.18-.06-.32-.09-.44-.09-.16,0-.29,.05-.38,.15-.09,.1-.13,.22-.13,.36,0,.05,.01,.11,.03,.17h-.29v.43h1.26v-.43Z"/><polygon class="cls-4" points="60.43 9.81 59.52 9.81 59.52 14.05 58.54 14.05 58.54 11.31 57.75 11.31 57.75 14.05 56.77 14.05 56.75 14.86 60.43 14.86 60.43 9.81"/><path class="cls-4" d="M57.94,18.5h-.54s-.05-.06-.05-.11,.02-.07,.04-.08c.03-.02,.06-.03,.1-.03,.06,0,.15,.02,.27,.05h.05s.12-.4,.12-.4l-.05-.02c-.18-.06-.32-.09-.44-.09-.16,0-.29,.05-.38,.15-.09,.1-.13,.22-.13,.36,0,.05,.01,.11,.03,.17h-.29v.43h1.26v-.43Z"/><path class="cls-4" d="M61.38,22.16h-.71c-.19,0-.34-.06-.43-.17-.1-.11-.15-.29-.15-.54v-3.68h-.91v3.83c0,.06,0,.14,.01,.24v.04s-.03,.02-.03,.02c-.36,.21-.52,.25-.85,.25-.05,0-.19,0-.19,0v-2.75h-.79v2.75h-.98l-.02,.81h1.93c.43,0,.76-.13,1.11-.39l.06-.04,.04,.05c.2,.26,.48,.38,.86,.38h1.98v-5.06h-.92v4.25Z"/><path class="cls-4" d="M22.09,12.31c.13,0,.26,.02,.42,.05v1.66c-.08,.01-.26,.04-.42,.04-.22,0-.46-.08-.6-.22-.14-.15-.21-.36-.21-.62,0-.6,.27-.9,.8-.9m-.98,2.33c.24,.14,.53,.21,.81,.2,.31-.01,.52-.05,.57-.06-.01,.14-.06,.26-.12,.35-.08,.13-.2,.22-.37,.28-.16,.06-.37,.11-.65,.15l.37,.83c.51-.09,.91-.24,1.2-.46,.28-.23,.44-.59,.48-1.08h.4s0,0,0,0h1.57v-5.04h-.91v4.25h-.65s0,0,0,0h-.4v-2.41c-.57-.09-1.01-.13-1.31-.13-.35,0-.67,.07-.94,.22-.27,.14-.48,.35-.63,.6-.15,.26-.23,.55-.23,.86s.07,.62,.21,.87c.14,.25,.33,.44,.58,.58"/></g><g class="cls-3"><rect class="cls-2" x="57.98" y="-5.34" width="46.16" height="46.31" transform="translate(10.37 61.3) rotate(-43.99)"/></g></g></g></svg>